# xmcd
#
# Track frame offsets: 
#        150
#        13044
#        29944
#        41382
#        57316
#        69730
#        82152
#        100640
#        122515
#        138327
#
# Disc length: 2023 seconds
#
# Revision: 0
# Processed by: cddbd v1.4PL0 Copyright (c) Steve Scherf et al.
# Submitted via: ExactAudioCopy v0.95a3
#
DISCID=8807e50a
DTITLE=蔡琴 - 經典名曲1(NTD極光) Cd2
DYEAR=2003
DGENRE=Blues
TTITLE0=情人山
TTITLE1=懷念
TTITLE2=初戀
TTITLE3=夢中人
TTITLE4=今宵多珍重
TTITLE5=神秘女郎
TTITLE6=明日之歌
TTITLE7=夢裡相思
TTITLE8=重相逢
TTITLE9=魂縈舊夢
EXTD=
EXTT0=
EXTT1=
EXTT2=
EXTT3=
EXTT4=
EXTT5=
EXTT6=
EXTT7=
EXTT8=
EXTT9=
PLAYORDER=
